<html>
<head>
<meta charset="UTF-8">
<meta name="viewport" content="width=device-width, initial-scale=1.0"/>

<style>
.comment
{
    padding-left: 20px;
    margin-top: 4px;
    margin-right: 4px;
    margin-bottom: 4px;
    border: 2px #000 solid;
}
.submission
{
    border: 4px #00f solid;
    padding-left: 20px;
}
.hidden
{
    display: none;
}
</style>
</head>
<body><div class="submission" id="t3_7brmnu">
    <p class="userinfo">
        <a href="https://www.reddit.com/u/MrWifeSteal007">MrWifeSteal007</a>
        <span class="score"> | 27 points</span>
        <span class="timestamp"> | Nov 09 2017 06:33:18</span>
    </p>
    <strong>[TV][60FPS] Mr.Robot S03E05 720p.HDTV.x265-N0 M3rCY[754MB]</strong>
    <p><p>[link] (http://links.snahp.it/155MRR)</p>
<p><strong>Other 60 FPS uploads</strong></p>
<p>Guardians of The Galaxy 2014 - <a href="https://www.reddit.com/r/megalinks/comments/69w0gl/movie_guardians_of_the_galaxy_2014_1080p_bluray/">Link</a></p>
<p>Batman Begins 2005 - <a href="https://www.reddit.com/r/megalinks/comments/6aim5u/movie_batman_begins_2005_1080p_bluray_x265_663gb/">Link</a></p>
<p>Dark knight Rises 2008 -<a href="https://www.reddit.com/r/megalinks/comments/6ajkuk/movie_the_dark_knight_rises_1080p_bluray_x265_888/">Link</a></p>
<p>The Dark Kight Rises 2012 - <a href="https://www.reddit.com/r/megalinks/comments/6ajkuk/movie_the_dark_knight_rises_1080p_bluray_x265_888/">Link</a></p>
<p><strong>General</strong></p>
<p>Unique ID                                : 231375479802491279030730882247892022107 (0xAE114BE716476B3F0B5D4031CF56335B)
Complete name                            : Mr.Robot.S03E05.720p[60FPS].HDTV.x265-N0 M3rCY.mkv
Format                                   : Matroska
Format version                           : Version 4 / Version 2
File size                                : 754 MiB
Duration                                 : 44 min 31 s
Overall bit rate                         : 2 368 kb/s
Writing application                      : Lavf57.83.100
Writing library                          : Lavf57.83.100
ErrorDetectionType                       : Per level 1</p>
<p><strong>Video</strong></p>
<p>ID                                       : 1
Format                                   : HEVC
Format/Info                              : High Efficiency Video Coding
Format profile                           : Main 10@L5.1@High
Codec ID                                 : V_MPEGH/ISO/HEVC
Duration                                 : 44 min 31 s
Bit rate                                 : 1 937 kb/s
Width                                    : 1 280 pixels
Height                                   : 720 pixels
Display aspect ratio                     : 16:9
Frame rate mode                          : Constant
<strong>Frame rate                               : 59.940 (59940/1000) FPS</strong>
Standard                                 : Component
Color space                              : YUV
Chroma subsampling                       : 4:2:0
Bit depth                                : 8 bits
Bits/(Pixel*Frame)                       : 0.035
Stream size                              : 617 MiB (82%)
Default                                  : Yes
Forced                                   : No
Color range                              : Limited
Matrix coefficients                      : BT.709</p>
<p><strong>Audio</strong></p>
<p>ID                                       : 2
Format                                   : AC-3
Format/Info                              : Audio Coding 3
Codec ID                                 : A_AC3
Duration                                 : 44 min 31 s
Bit rate mode                            : Constant
Bit rate                                 : 384 kb/s
Channel(s)                               : 6 channels
Channel positions                        : Front: L C R, Side: L R, LFE
Sampling rate                            : 48.0 kHz
Frame rate                               : 31.250 FPS (1536 SPF)
Bit depth                                : 16 bits
Compression mode                         : Lossy
Stream size                              : 122 MiB (16%)
Service kind                             : Complete Main
Default                                  : Yes
Forced                                   : No</p></p>
    <p class="toolbar">
        <a href="https://www.reddit.com/r/megalinks/comments/7brmnu">permalink</a>
    </p>
</div>
<div class="comment" id="t1_dpkda7o">
    <p class="userinfo">
        <a
        class="toggle_hide_button"
        href="javascript:void(0)"
        onclick="toggle_collapse(this.parentElement.parentElement)">[-]
        </a>
        <a href="https://www.reddit.com/u/trashcluster">trashcluster</a>
        <span class="score"> | 1 points</span>
        <span class="timestamp"> | Nov 09 2017 09:22:37</span>
    </p>
    <div class="collapsible">
        <p>Is Mr. Robot mastered in 60fps ?</p>
        <p class="toolbar">
            <a href="https://www.reddit.com/r/megalinks/comments/7brmnu/_/dpkda7o">permalink</a>
        </p>
        <div class="comment" id="t1_dpkqqhg">
    <p class="userinfo">
        <a
        class="toggle_hide_button"
        href="javascript:void(0)"
        onclick="toggle_collapse(this.parentElement.parentElement)">[-]
        </a>
        <a href="https://www.reddit.com/u/MrWifeSteal007">MrWifeSteal007</a>
        <span class="score"> | 1 points</span>
        <span class="timestamp"> | Nov 09 2017 15:55:05</span>
    </p>
    <div class="collapsible">
        <p>No. i just used this <a href="https://www.reddit.com/r/megalinks/comments/7bqv8h/tv_mr_robot_s03e05_720p_hdtv_x264avs_870_mb/">Source</a> to convert it to 60fps.</p>
        <p class="toolbar">
            <a href="https://www.reddit.com/r/megalinks/comments/7brmnu/_/dpkqqhg">permalink</a>
        </p>
        <div class="comment" id="t1_dpkquqb">
    <p class="userinfo">
        <a
        class="toggle_hide_button"
        href="javascript:void(0)"
        onclick="toggle_collapse(this.parentElement.parentElement)">[-]
        </a>
        <a href="https://www.reddit.com/u/TMGreycoat">TMGreycoat</a>
        <span class="score"> | 1 points</span>
        <span class="timestamp"> | Nov 09 2017 15:57:11</span>
    </p>
    <div class="collapsible">
        <p>What software do you use for interpolation?</p>
        <p class="toolbar">
            <a href="https://www.reddit.com/r/megalinks/comments/7brmnu/_/dpkquqb">permalink</a>
        </p>
        <div class="comment" id="t1_dpkr6n6">
    <p class="userinfo">
        <a
        class="toggle_hide_button"
        href="javascript:void(0)"
        onclick="toggle_collapse(this.parentElement.parentElement)">[-]
        </a>
        <a href="https://www.reddit.com/u/MrWifeSteal007">MrWifeSteal007</a>
        <span class="score"> | 1 points</span>
        <span class="timestamp"> | Nov 09 2017 16:02:56</span>
    </p>
    <div class="collapsible">
        <p><a href="https://www.svp-team.com/wiki/Main_Page">SVP</a></p>
        <p class="toolbar">
            <a href="https://www.reddit.com/r/megalinks/comments/7brmnu/_/dpkr6n6">permalink</a>
        </p>
        
    </div>
</div>
    </div>
</div>
    </div>
</div>
    </div>
</div>
</body>

<script>
function toggle_collapse(comment_div)
{
    var button = comment_div.getElementsByClassName("toggle_hide_button")[0];
    var collapsible = comment_div.getElementsByClassName("collapsible")[0];
    if (collapsible.classList.contains("hidden"))
    {
        collapsible.classList.remove("hidden");
        button.innerText = "[-]";
    }
    else
    {
        collapsible.classList.add("hidden");
        button.innerText = "[+]";
    }
}
</script>
</html>
